<svg xmlns="http://www.w3.org/2000/svg" width="1080" height="1080" viewBox="0 0 1080 1080">
  <defs>
    <radialGradient id="bg" cx="0.5" cy="0.1" r="1.0"><stop offset="0" stop-color="#1b4f8c"/><stop offset="0.55" stop-color="#0E2746"/><stop offset="1" stop-color="#0a1f3b"/></radialGradient>
    <linearGradient id="sky" x1="0" y1="0" x2="0" y2="1"><stop offset="0" stop-color="#CDE8FA"/><stop offset="1" stop-color="#A6CFF0"/></linearGradient>
    <linearGradient id="sea" x1="0" y1="0" x2="0" y2="1"><stop offset="0" stop-color="#327ABE"/><stop offset="1" stop-color="#0F2F5C"/></linearGradient>
    <linearGradient id="port" x1="0.1" y1="0" x2="0.5" y2="1"><stop offset="0" stop-color="#4A90CE"/><stop offset="1" stop-color="#19406F"/></linearGradient>
    <linearGradient id="front" x1="0.9" y1="0" x2="0.5" y2="1"><stop offset="0" stop-color="#23538E"/><stop offset="1" stop-color="#0C2549"/></linearGradient>
    <radialGradient id="ring" cx="0.5" cy="0.5" r="0.5"><stop offset="0.86" stop-color="#0E2746"/><stop offset="1" stop-color="#081A33"/></radialGradient>
    <clipPath id="scene"><circle cx="128" cy="128" r="106"/></clipPath>
    <linearGradient id="skyb" x1="0" y1="0" x2="0" y2="1"><stop offset="0" stop-color="#CDE8FA"/><stop offset="1" stop-color="#A6CFF0"/></linearGradient>
    <linearGradient id="seab" x1="0" y1="0" x2="0" y2="1"><stop offset="0" stop-color="#327ABE"/><stop offset="1" stop-color="#0F2F5C"/></linearGradient>
    <linearGradient id="portb" x1="0.1" y1="0" x2="0.5" y2="1"><stop offset="0" stop-color="#4A90CE"/><stop offset="1" stop-color="#19406F"/></linearGradient>
    <linearGradient id="frontb" x1="0.9" y1="0" x2="0.5" y2="1"><stop offset="0" stop-color="#23538E"/><stop offset="1" stop-color="#0C2549"/></linearGradient>
    <radialGradient id="ringb" cx="0.5" cy="0.5" r="0.5"><stop offset="0.86" stop-color="#0E2746"/><stop offset="1" stop-color="#081A33"/></radialGradient>
    <clipPath id="sceneb"><circle cx="128" cy="128" r="106"/></clipPath>
  </defs>
  <rect width="1080" height="1080" fill="url(#bg)"/>
  <g transform="translate(1060,620) scale(1.6)" opacity="0.05">
    <circle cx="128" cy="128" r="118" fill="url(#ringb)"/>
    <circle cx="128" cy="128" r="106" fill="#0a1f3b"/>
    <g clip-path="url(#sceneb)">
      <rect x="22" y="22" width="212" height="212" fill="url(#skyb)"/>
      <path d="M22,170 Q128,162 234,170 L234,234 L22,234 Z" fill="url(#seab)"/>
      <polygon points="128,24 136,52 128,45 120,52" fill="#34D399"/>
      <circle cx="128" cy="52" r="2.4" fill="#0C2746"/>
      <path d="M130,60 Q92,62 60,80 Q128,72 196,80 Q168,62 130,60 Z" fill="#5A9AD8"/>
      <rect x="118" y="52" width="24" height="11" rx="2.5" fill="#CFE2F7"/>
      <ellipse cx="120" cy="204" rx="15" ry="9" fill="#0C2549"/>
      <path d="M130,60 Q74,74 50,104 Q54,150 80,176 Q100,194 120,202 L130,60 Z" fill="url(#portb)"/>
      <path d="M130,60 Q188,74 206,104 Q200,150 174,176 Q150,194 120,202 L130,60 Z" fill="url(#frontb)"/>
      <path d="M130,60 L120,202" fill="none" stroke="#A8CFF2" stroke-width="2.6" opacity="0.85"/>
      <path d="M58,118 Q120,108 198,118" fill="none" stroke="#0C2549" stroke-width="1.6" opacity="0.35"/>
      <path d="M72,150 Q120,142 168,150" fill="none" stroke="#0C2549" stroke-width="1.6" opacity="0.35"/>
      <path d="M70,168 Q120,196 170,168" fill="none" stroke="#34D399" stroke-width="2" opacity="0.7"/>
      <circle cx="104" cy="150" r="2.6" fill="#0C2549" opacity="0.55"/>
      <circle cx="150" cy="150" r="2.6" fill="#0C2549" opacity="0.55"/>
      <g fill="#CFE9FB">
        <path d="M120,202 C94,206 66,206 42,196 C70,224 106,224 130,210 Z"/>
        <path d="M120,202 C146,206 174,206 198,196 C170,224 136,224 114,210 Z"/>
      </g>
      <g fill="none" stroke="#CFE9FB" stroke-width="2.6" stroke-linecap="round" opacity="0.8">
        <path d="M50,210 q34,12 70,8 t70,-8"/>
        <path d="M38,228 q44,10 90,0 t90,0"/>
      </g>
    </g>
    <g stroke="#EAF4FF" stroke-linecap="round">
      <g stroke-width="3.4">
        <line x1="128" y1="11" x2="128" y2="22"/><line x1="245" y1="128" x2="234" y2="128"/>
        <line x1="128" y1="245" x2="128" y2="234"/><line x1="11" y1="128" x2="22" y2="128"/>
      </g>
      <g stroke-width="2.2" opacity="0.65">
        <line x1="210" y1="46" x2="203" y2="53"/><line x1="210" y1="210" x2="203" y2="203"/>
        <line x1="46" y1="210" x2="53" y2="203"/><line x1="46" y1="46" x2="53" y2="53"/>
      </g>
    </g>
  </g>
  <g transform="translate(70,66) scale(0.42)">
    <circle cx="128" cy="128" r="118" fill="url(#ring)"/>
    <circle cx="128" cy="128" r="106" fill="#0a1f3b"/>
    <g clip-path="url(#scene)">
      <rect x="22" y="22" width="212" height="212" fill="url(#sky)"/>
      <path d="M22,170 Q128,162 234,170 L234,234 L22,234 Z" fill="url(#sea)"/>
      <polygon points="128,24 136,52 128,45 120,52" fill="#34D399"/>
      <circle cx="128" cy="52" r="2.4" fill="#0C2746"/>
      <path d="M130,60 Q92,62 60,80 Q128,72 196,80 Q168,62 130,60 Z" fill="#5A9AD8"/>
      <rect x="118" y="52" width="24" height="11" rx="2.5" fill="#CFE2F7"/>
      <ellipse cx="120" cy="204" rx="15" ry="9" fill="#0C2549"/>
      <path d="M130,60 Q74,74 50,104 Q54,150 80,176 Q100,194 120,202 L130,60 Z" fill="url(#port)"/>
      <path d="M130,60 Q188,74 206,104 Q200,150 174,176 Q150,194 120,202 L130,60 Z" fill="url(#front)"/>
      <path d="M130,60 L120,202" fill="none" stroke="#A8CFF2" stroke-width="2.6" opacity="0.85"/>
      <path d="M58,118 Q120,108 198,118" fill="none" stroke="#0C2549" stroke-width="1.6" opacity="0.35"/>
      <path d="M72,150 Q120,142 168,150" fill="none" stroke="#0C2549" stroke-width="1.6" opacity="0.35"/>
      <path d="M70,168 Q120,196 170,168" fill="none" stroke="#34D399" stroke-width="2" opacity="0.7"/>
      <circle cx="104" cy="150" r="2.6" fill="#0C2549" opacity="0.55"/>
      <circle cx="150" cy="150" r="2.6" fill="#0C2549" opacity="0.55"/>
      <g fill="#CFE9FB">
        <path d="M120,202 C94,206 66,206 42,196 C70,224 106,224 130,210 Z"/>
        <path d="M120,202 C146,206 174,206 198,196 C170,224 136,224 114,210 Z"/>
      </g>
      <g fill="none" stroke="#CFE9FB" stroke-width="2.6" stroke-linecap="round" opacity="0.8">
        <path d="M50,210 q34,12 70,8 t70,-8"/>
        <path d="M38,228 q44,10 90,0 t90,0"/>
      </g>
    </g>
    <g stroke="#EAF4FF" stroke-linecap="round">
      <g stroke-width="3.4">
        <line x1="128" y1="11" x2="128" y2="22"/><line x1="245" y1="128" x2="234" y2="128"/>
        <line x1="128" y1="245" x2="128" y2="234"/><line x1="11" y1="128" x2="22" y2="128"/>
      </g>
      <g stroke-width="2.2" opacity="0.65">
        <line x1="210" y1="46" x2="203" y2="53"/><line x1="210" y1="210" x2="203" y2="203"/>
        <line x1="46" y1="210" x2="53" y2="203"/><line x1="46" y1="46" x2="53" y2="53"/>
      </g>
    </g>
  </g>
  <g font-family="Avenir Next, Futura, Helvetica Neue, Arial, sans-serif">
    <text x="188" y="150" font-size="52" font-weight="800" letter-spacing="0.5"><tspan fill="#FFFFFF">ship</tspan><tspan fill="#34D399">vane</tspan></text>
    <!-- EDIT: eyebrow -->
    <text x="72" y="470" font-size="26" font-weight="700" letter-spacing="4" fill="#34D399">AUTONOMOUS ENGINEERING</text>
    <!-- EDIT: headline (up to ~3 lines) -->
    <text font-family="Avenir Next, Futura, Helvetica Neue, Arial, sans-serif" font-size="86" font-weight="800" letter-spacing="-1" fill="#FFFFFF">
      <tspan x="72" y="580">Ticket in.</tspan>
      <tspan x="72" y="682">Merge-ready</tspan>
      <tspan x="72" y="784">PR out.</tspan>
    </text>
    <!-- EDIT: subline -->
    <text x="74" y="864" font-size="34" font-weight="500" fill="#BCD3EC">Proven by real CI. You keep the call.</text>
    <text x="72" y="1000" font-size="28" font-weight="600" fill="#7FA8C8">shipvane.dev · @shipvanehq</text>
  </g>
</svg>
